<svg width="521" height="47" viewBox="0 0 521 47" fill="none" xmlns="http://www.w3.org/2000/svg">
<g clip-path="url(#clip0_1272_4279)">
<path d="M73.54 12.1159V16.2214H66.818V37.3498H61.8017V16.2214H55.0797V12.1159H73.54Z" fill="#001949"/>
<path d="M92.7025 32.5433H82.6697L80.9642 37.3498H75.6468L84.6763 12.1159H90.5956L99.625 37.3498H94.3077L92.6021 32.5433H92.7025ZM91.2979 28.4378L87.6861 17.9237L84.0743 28.4378H91.3982H91.2979Z" fill="#001949"/>
<path d="M120.493 23.7315C119.891 24.9331 118.888 25.8343 117.483 26.5353C116.079 27.2362 114.373 27.6367 112.367 27.6367H108.153V37.2497H103.136V12.1159H112.467C114.373 12.1159 116.079 12.4163 117.483 13.1172C118.888 13.8182 119.891 14.7194 120.593 15.921C121.296 17.1226 121.597 18.4244 121.597 19.9264C121.597 21.4284 121.296 22.5299 120.593 23.7315H120.493ZM115.276 22.63C115.978 22.0292 116.279 21.128 116.279 19.9264C116.279 17.5232 114.875 16.2214 112.166 16.2214H108.153V23.5312H112.166C113.571 23.5312 114.574 23.2308 115.276 22.5299V22.63Z" fill="#001949"/>
<path d="M167.346 12.1159L160.323 37.2497H154.404L149.688 19.3256L144.772 37.2497H138.853L132.031 12.1159H137.448L141.863 31.6421L146.98 12.1159H152.598L157.414 31.542L161.928 12.1159H167.346Z" fill="#001949"/>
<path d="M174.269 36.3488C172.764 35.4476 171.56 34.246 170.657 32.744C169.754 31.1418 169.353 29.3394 169.353 27.3367C169.353 25.334 169.754 23.5316 170.757 21.9295C171.66 20.3273 172.864 19.1257 174.469 18.3246C176.075 17.4234 177.78 17.0229 179.686 17.0229C181.593 17.0229 183.398 17.4234 184.903 18.3246C186.509 19.2258 187.713 20.4274 188.616 21.9295C189.518 23.5316 190.02 25.334 190.02 27.3367C190.02 29.3394 189.518 31.1418 188.616 32.744C187.713 34.3461 186.408 35.5478 184.903 36.3488C183.298 37.25 181.593 37.6506 179.586 37.6506C177.58 37.6506 175.974 37.25 174.369 36.3488H174.269ZM182.094 32.5437C182.897 32.1432 183.499 31.4422 184 30.541C184.502 29.6398 184.703 28.5383 184.703 27.3367C184.703 25.4342 184.201 23.9322 183.198 22.9308C182.195 21.9295 180.991 21.4288 179.486 21.4288C177.981 21.4288 176.877 21.9295 175.874 22.9308C174.871 23.9322 174.369 25.4342 174.369 27.3367C174.369 29.2393 174.871 30.7413 175.774 31.7426C176.677 32.744 177.88 33.2447 179.385 33.2447C180.89 33.2447 181.191 33.0444 181.994 32.5437H182.094Z" fill="#001949"/>
<path d="M201.257 17.9241C202.26 17.3233 203.464 17.0229 204.869 17.0229V22.33H203.564C201.959 22.33 200.755 22.7305 199.953 23.4315C199.15 24.1324 198.749 25.4342 198.749 27.3367V37.25H193.732V17.3233H198.749V20.4274C199.351 19.326 200.254 18.5249 201.257 17.9241Z" fill="#001949"/>
<path d="M220.118 37.3498L213.296 28.8384V37.3498H208.28V10.6139H213.296V25.8343L220.018 17.3229H226.639L217.811 27.3363L226.74 37.2497H220.118V37.3498Z" fill="#001949"/>
<path d="M238.478 21.5281H234.967V37.3493H229.85V21.5281H227.543V17.4226H229.85V16.4212C229.85 14.018 230.552 12.2156 231.957 11.014C233.362 9.81235 235.468 9.31167 238.278 9.41181V13.6175C237.074 13.6175 236.171 13.8177 235.669 14.2183C235.167 14.6188 234.967 15.4199 234.967 16.5214V17.3224H238.478V21.428V21.5281Z" fill="#001949"/>
<path d="M246.906 10.6139V37.2497H241.889V10.6139H246.906Z" fill="#001949"/>
<path d="M255.534 36.3488C254.029 35.4476 252.825 34.246 251.922 32.744C251.019 31.1418 250.618 29.3394 250.618 27.3367C250.618 25.334 251.019 23.5316 252.022 21.9295C252.925 20.3273 254.129 19.1257 255.734 18.3246C257.34 17.4234 259.045 17.0229 260.951 17.0229C262.858 17.0229 264.664 17.4234 266.168 18.3246C267.774 19.2258 268.978 20.4274 269.881 21.9295C270.784 23.5316 271.285 25.334 271.285 27.3367C271.285 29.3394 270.784 31.1418 269.881 32.744C268.978 34.3461 267.673 35.5478 266.168 36.3488C264.563 37.25 262.858 37.6506 260.851 37.6506C258.845 37.6506 257.239 37.25 255.634 36.3488H255.534ZM263.359 32.5437C264.162 32.1432 264.764 31.4422 265.266 30.541C265.767 29.6398 265.968 28.5383 265.968 27.3367C265.968 25.4342 265.466 23.9322 264.463 22.9308C263.46 21.9295 262.256 21.4288 260.751 21.4288C259.246 21.4288 258.142 21.9295 257.139 22.9308C256.136 23.9322 255.634 25.4342 255.634 27.3367C255.634 29.2393 256.136 30.7413 257.039 31.7426C257.942 32.744 259.146 33.2447 260.65 33.2447C262.155 33.2447 262.456 33.0444 263.259 32.5437H263.359Z" fill="#001949"/>
<path d="M302.587 17.3231L296.768 37.2499H291.351L287.739 23.3312L284.127 37.2499H278.609L272.69 17.3231H277.806L281.318 32.5435L285.13 17.3231H290.448L294.16 32.5435L297.671 17.3231H302.587Z" fill="#001949"/>
<path d="M321.248 32.5433H311.216L309.51 37.3498H304.193L313.222 12.1159H319.141L328.171 37.3498H322.854L321.148 32.5433H321.248ZM319.844 28.4378L316.232 17.9237L312.62 28.4378H319.944H319.844Z" fill="#001949"/>
<path d="M350.544 17.3225V37.2493H345.427V34.7459C344.825 35.6471 343.922 36.2479 342.919 36.7486C341.916 37.2493 340.712 37.4495 339.508 37.4495C338.304 37.4495 336.598 37.1491 335.394 36.4482C334.19 35.7472 333.288 34.846 332.585 33.5443C331.883 32.2425 331.582 30.7405 331.582 28.9381V17.2224H336.598V28.2372C336.598 29.8393 337 31.0409 337.802 31.9421C338.605 32.8433 339.708 33.2439 341.013 33.2439C342.317 33.2439 343.521 32.8433 344.324 31.9421C345.126 31.0409 345.527 29.8393 345.527 28.2372V17.2224H350.644H350.544V17.3225Z" fill="#001949"/>
<path d="M361.379 21.5289V31.1418C361.379 31.8428 361.58 32.3435 361.881 32.6439C362.182 32.9443 362.784 33.1445 363.486 33.1445H365.794V37.3502H362.583C358.369 37.3502 356.162 35.2474 356.162 31.1418V21.5289H353.754V17.4234H356.162V12.5168H361.279V17.4234H365.794V21.5289H361.279H361.379Z" fill="#001949"/>
<path d="M373.218 36.3488C371.713 35.4476 370.509 34.246 369.606 32.744C368.703 31.1418 368.302 29.3394 368.302 27.3367C368.302 25.334 368.703 23.5316 369.706 21.9295C370.609 20.3273 371.813 19.1257 373.418 18.3246C375.024 17.4234 376.729 17.0229 378.635 17.0229C380.542 17.0229 382.348 17.4234 383.852 18.3246C385.458 19.2258 386.662 20.4274 387.565 21.9295C388.468 23.5316 388.969 25.334 388.969 27.3367C388.969 29.3394 388.468 31.1418 387.565 32.744C386.662 34.3461 385.357 35.5478 383.852 36.3488C382.247 37.25 380.542 37.6506 378.535 37.6506C376.529 37.6506 374.923 37.25 373.318 36.3488H373.218ZM380.943 32.5437C381.746 32.1432 382.348 31.4422 382.849 30.541C383.351 29.6398 383.551 28.5383 383.551 27.3367C383.551 25.4342 383.05 23.9322 382.047 22.9308C381.043 21.9295 379.839 21.4288 378.334 21.4288C376.83 21.4288 375.726 21.9295 374.723 22.9308C373.719 23.9322 373.218 25.4342 373.218 27.3367C373.218 29.2393 373.719 30.7413 374.622 31.7426C375.525 32.744 376.729 33.2447 378.234 33.2447C379.739 33.2447 380.04 33.0444 380.843 32.5437H380.943Z" fill="#001949"/>
<path d="M423.281 19.3256C424.786 20.8276 425.488 22.9304 425.488 25.6341V37.3498H420.472V26.335C420.472 24.7328 420.071 23.5312 419.268 22.7301C418.465 21.9291 417.362 21.5285 416.058 21.5285C414.753 21.5285 413.549 21.9291 412.747 22.7301C411.944 23.5312 411.543 24.7328 411.543 26.335V37.3498H406.526V26.335C406.526 24.7328 406.125 23.5312 405.323 22.7301C404.52 21.9291 403.416 21.5285 402.112 21.5285C400.808 21.5285 399.604 21.9291 398.801 22.7301C397.999 23.5312 397.597 24.7328 397.597 26.335V37.3498H392.581V17.423H397.597V19.8262C398.199 19.0252 399.102 18.3242 400.105 17.8236C401.109 17.3229 402.212 17.1226 403.517 17.1226C404.821 17.1226 406.526 17.423 407.73 18.124C408.934 18.8249 409.938 19.7261 410.54 20.9277C411.142 19.7261 412.145 18.8249 413.349 18.124C414.553 17.423 415.957 17.1226 417.362 17.1226C419.77 17.1226 421.776 17.9237 423.281 19.3256Z" fill="#001949"/>
<path d="M430.304 21.9295C431.107 20.3273 432.21 19.1257 433.615 18.3246C435.02 17.5235 436.524 17.0229 438.23 17.0229C439.936 17.0229 441.039 17.3233 442.143 17.9241C443.246 18.5249 444.149 19.326 444.852 20.2272V17.4234H449.968V37.3502H444.852V34.4463C444.25 35.3475 443.347 36.1486 442.143 36.7494C441.039 37.3502 439.635 37.6506 438.23 37.6506C436.825 37.6506 435.02 37.25 433.615 36.3488C432.21 35.4476 431.107 34.246 430.304 32.6439C429.502 31.0417 429.1 29.2393 429.1 27.2366C429.1 25.2339 429.502 23.4315 430.304 21.8293V21.9295ZM444.149 24.1324C443.648 23.2312 443.046 22.6304 442.243 22.1297C441.44 21.6291 440.538 21.4288 439.635 21.4288C438.732 21.4288 437.829 21.6291 437.026 22.1297C436.223 22.6304 435.621 23.2312 435.12 24.1324C434.618 25.0336 434.418 26.035 434.418 27.2366C434.418 28.4382 434.618 29.4396 435.12 30.4409C435.621 31.3421 436.223 32.0431 437.026 32.5437C437.829 33.0444 438.732 33.2447 439.635 33.2447C440.538 33.2447 441.44 33.0444 442.243 32.5437C443.046 32.0431 443.748 31.4422 444.149 30.541C444.651 29.6398 444.852 28.6385 444.852 27.4369C444.852 26.2352 444.651 25.1338 444.149 24.2326V24.1324Z" fill="#001949"/>
<path d="M460.804 21.5289V31.1418C460.804 31.8428 461.004 32.3435 461.305 32.6439C461.606 32.9443 462.208 33.1445 462.91 33.1445H465.218V37.3502H462.008C457.794 37.3502 455.587 35.2474 455.587 31.1418V21.5289H453.179V17.4234H455.587V12.5168H460.703V17.4234H465.218V21.5289H460.703H460.804Z" fill="#001949"/>
<path d="M469.231 14.1186C468.629 13.5178 468.328 12.8168 468.328 12.0158C468.328 11.2147 468.629 10.5137 469.231 9.91293C469.833 9.31212 470.535 9.11185 471.438 9.11185C472.341 9.11185 473.044 9.41225 473.646 9.91293C474.248 10.5137 474.549 11.2147 474.549 12.0158C474.549 12.8168 474.248 13.5178 473.646 14.1186C473.044 14.7194 472.341 14.9197 471.438 14.9197C470.535 14.9197 469.833 14.6193 469.231 14.1186ZM473.947 17.3229V37.2497H468.93V17.3229H473.947Z" fill="#001949"/>
<path d="M482.575 36.3488C481.07 35.4476 479.866 34.246 478.963 32.744C478.06 31.1418 477.659 29.3394 477.659 27.3367C477.659 25.334 478.06 23.5316 479.063 21.9295C479.966 20.3273 481.17 19.1257 482.775 18.3246C484.381 17.4234 486.086 17.0229 487.992 17.0229C489.899 17.0229 491.704 17.4234 493.209 18.3246C494.815 19.2258 496.019 20.4274 496.921 21.9295C497.824 23.5316 498.326 25.334 498.326 27.3367C498.326 29.3394 497.824 31.1418 496.921 32.744C496.019 34.3461 494.714 35.5478 493.209 36.3488C491.604 37.25 489.899 37.6506 487.892 37.6506C485.885 37.6506 484.28 37.25 482.675 36.3488H482.575ZM490.4 32.5437C491.203 32.1432 491.805 31.4422 492.306 30.541C492.808 29.6398 493.009 28.5383 493.009 27.3367C493.009 25.4342 492.507 23.9322 491.504 22.9308C490.501 21.9295 489.297 21.4288 487.792 21.4288C486.287 21.4288 485.183 21.9295 484.18 22.9308C483.177 23.9322 482.675 25.4342 482.675 27.3367C482.675 29.2393 483.177 30.7413 484.08 31.7426C484.983 32.744 486.186 33.2447 487.691 33.2447C489.196 33.2447 489.497 33.0444 490.3 32.5437H490.4Z" fill="#001949"/>
<path d="M518.793 19.3252C520.298 20.8272 521 22.93 521 25.6337V37.3494H515.984V26.3346C515.984 24.7324 515.582 23.5308 514.78 22.6296C513.977 21.7284 512.874 21.3279 511.569 21.3279C510.265 21.3279 509.061 21.7284 508.258 22.6296C507.456 23.5308 507.055 24.7324 507.055 26.3346V37.3494H502.038V17.4226H507.055V19.926C507.757 19.0248 508.559 18.424 509.663 17.9233C510.666 17.4226 511.87 17.2224 513.074 17.2224C515.482 17.2224 517.388 18.0234 518.893 19.4253L518.793 19.3252Z" fill="#001949"/>
<path d="M18.4603 25.935C19.9009 25.935 21.0688 24.7694 21.0688 23.3315C21.0688 21.8937 19.9009 20.728 18.4603 20.728C17.0196 20.728 15.8517 21.8937 15.8517 23.3315C15.8517 24.7694 17.0196 25.935 18.4603 25.935Z" fill="#ED5B3E"/>
<path d="M18.4602 28.8386C15.4504 28.8386 12.9422 26.3352 12.9422 23.3312C12.9422 20.3271 15.4504 17.8238 18.4602 17.8238C21.47 17.8238 23.9782 20.3271 23.9782 23.3312C23.9782 26.3352 21.47 28.8386 18.4602 28.8386ZM18.4602 19.526C16.3533 19.526 14.6478 21.2283 14.6478 23.3312C14.6478 25.434 16.3533 27.1363 18.4602 27.1363C20.5671 27.1363 22.2726 25.434 22.2726 23.3312C22.2726 21.2283 20.5671 19.526 18.4602 19.526Z" fill="#001949"/>
<path d="M18.4602 10.9147C15.4504 10.9147 12.9422 8.4113 12.9422 5.40727C12.9422 2.40323 15.4504 0 18.4602 0C21.47 0 23.9782 2.50336 23.9782 5.5074C23.9782 8.51144 21.47 11.0148 18.4602 11.0148V10.9147ZM18.4602 1.70229C16.3533 1.70229 14.6478 3.40457 14.6478 5.5074C14.6478 7.61022 16.3533 9.31251 18.4602 9.31251C20.5671 9.31251 22.2726 7.61022 22.2726 5.5074C22.2726 3.40457 20.5671 1.70229 18.4602 1.70229Z" fill="#001949"/>
<path d="M18.4602 46.6623C15.4504 46.6623 12.9422 44.1589 12.9422 41.1549C12.9422 38.1509 15.4504 35.6475 18.4602 35.6475C21.47 35.6475 23.9782 38.1509 23.9782 41.1549C23.9782 44.1589 21.47 46.6623 18.4602 46.6623ZM18.4602 37.3498C16.3533 37.3498 14.6478 39.0521 14.6478 41.1549C14.6478 43.2577 16.3533 44.96 18.4602 44.96C20.5671 44.96 22.2726 43.2577 22.2726 41.1549C22.2726 39.0521 20.5671 37.3498 18.4602 37.3498Z" fill="#001949"/>
<path d="M26.5867 24.6333V22.931C31.4025 22.931 35.3152 19.1259 35.3152 14.4196C35.3152 9.71325 31.4025 5.90813 26.5867 5.90813V4.20585C32.3054 4.20585 36.9205 8.81204 36.9205 14.4196C36.9205 20.0271 32.3054 24.6333 26.5867 24.6333Z" fill="#001949"/>
<path d="M10.3337 42.6575C4.61506 42.6575 0 38.0513 0 32.4438C0 26.8363 4.61506 22.2301 10.3337 22.2301V23.9323C5.51801 23.9323 1.60524 27.7375 1.60524 32.4438C1.60524 37.1501 5.51801 40.9552 10.3337 40.9552V42.6575Z" fill="#001949"/>
</g>
<defs>
<clipPath id="clip0_1272_4279">
<rect width="520.3" height="46.6" fill="white" transform="scale(1.00135)"/>
</clipPath>
</defs>
</svg>
