<svg width="845" height="242" viewBox="0 0 845 242" fill="none" xmlns="http://www.w3.org/2000/svg">
<rect width="845" height="242" fill="white"/>
<path d="M445.727 153.802L417.83 87.6609L412.11 101.17L434.33 153.802H445.727Z" fill="#131C47"/>
<path d="M144.451 88.1154H156.343L175.64 119.182L194.938 88.1154H206.83V153.802H195.679V106.706L175.64 137.69H175.27L155.396 106.871V153.802H144.451V88.1154Z" fill="#01B6D2"/>
<path d="M227.362 88.1154H238.513V153.802H227.362V88.1154Z" fill="#01B6D2"/>
<path d="M273.775 98.8153H253.654V88.1154H305.129V98.8153H285.008V153.802H273.775V98.8153Z" fill="#01B6D2"/>
<path d="M357.344 128.932C366.15 126.329 372.404 119.843 372.404 109.019V108.854C372.404 103.112 370.511 98.2369 367.137 94.6841C363.064 90.5528 356.809 88.1154 348.827 88.1154H320.559V153.802H331.669V130.915H345.617L361.13 153.719L366.15 141.821L357.344 128.932ZM331.669 120.669V98.65H347.88C356.11 98.65 361.006 102.492 361.006 109.515V109.722C361.006 116.373 355.945 120.711 347.963 120.711H331.669V120.669Z" fill="#01B6D2"/>
<path d="M466.383 98.8153H446.262V88.1154H497.737V98.8153H477.616V153.802H466.383V98.8153Z" fill="#01B6D2"/>
<path d="M513.126 88.1154H560.156V98.4435H524.276V115.505H556.083V125.834H524.276V143.474H560.609V153.802H513.126V88.1154Z" fill="#01B6D2"/>
<path d="M573.735 121.165V120.959C573.735 102.286 587.231 87 606.446 87C618.132 87 625.209 91.2139 631.258 97.2454L624.098 105.797C619.037 100.922 613.565 97.6173 606.323 97.6173C594.267 97.6173 585.379 107.945 585.379 120.793V121C585.379 133.848 594.185 144.259 606.323 144.259C614.141 144.259 619.12 141.078 624.551 135.831L631.71 143.35C625.086 150.497 617.844 155 605.994 155C587.519 154.917 573.735 140.004 573.735 121.165Z" fill="#01B6D2"/>
<path d="M647.963 88.1154H659.114V115.423H689.398V88.1154H700.549V153.802H689.398V126.123H659.114V153.802H647.963V88.1154Z" fill="#01B6D2"/>
<path d="M417.83 87.6609H406.432L378.494 153.802H389.932L417.83 87.6609Z" fill="#01B6D2"/>
</svg>
